# Generated Marina 3D Model for Konsept 2
v 0.06061 -0.09000 0.00000
v 0.05695 -0.09000 0.02073
v 0.04643 -0.09000 0.03896
v 0.03030 -0.09000 0.05249
v 0.01052 -0.09000 0.05969
v -0.01052 -0.09000 0.05969
v -0.03030 -0.09000 0.05249
v -0.04643 -0.09000 0.03896
v -0.05695 -0.09000 0.02073
v -0.06061 -0.09000 0.00000
v -0.05695 -0.09000 -0.02073
v -0.04643 -0.09000 -0.03896
v -0.03030 -0.09000 -0.05249
v -0.01052 -0.09000 -0.05969
v 0.01052 -0.09000 -0.05969
v 0.03030 -0.09000 -0.05249
v 0.04643 -0.09000 -0.03896
v 0.05695 -0.09000 -0.02073
v 0.06061 -0.09000 -0.00000
v 0.07844 -0.08693 0.00000
v 0.07371 -0.08693 0.02683
v 0.06009 -0.08693 0.05042
v 0.03922 -0.08693 0.06793
v 0.01362 -0.08693 0.07725
v -0.01362 -0.08693 0.07725
v -0.03922 -0.08693 0.06793
v -0.06009 -0.08693 0.05042
v -0.07371 -0.08693 0.02683
v -0.07844 -0.08693 0.00000
v -0.07371 -0.08693 -0.02683
v -0.06009 -0.08693 -0.05042
v -0.03922 -0.08693 -0.06793
v -0.01362 -0.08693 -0.07725
v 0.01362 -0.08693 -0.07725
v 0.03922 -0.08693 -0.06793
v 0.06009 -0.08693 -0.05042
v 0.07371 -0.08693 -0.02683
v 0.07844 -0.08693 -0.00000
v 0.09319 -0.07794 0.00000
v 0.08757 -0.07794 0.03187
v 0.07138 -0.07794 0.05990
v 0.04659 -0.07794 0.08070
v 0.01618 -0.07794 0.09177
v -0.01618 -0.07794 0.09177
v -0.04659 -0.07794 0.08070
v -0.07138 -0.07794 0.05990
v -0.08757 -0.07794 0.03187
v -0.09319 -0.07794 0.00000
v -0.08757 -0.07794 -0.03187
v -0.07138 -0.07794 -0.05990
v -0.04659 -0.07794 -0.08070
v -0.01618 -0.07794 -0.09177
v 0.01618 -0.07794 -0.09177
v 0.04659 -0.07794 -0.08070
v 0.07138 -0.07794 -0.05990
v 0.08757 -0.07794 -0.03187
v 0.09319 -0.07794 -0.00000
v 0.10481 -0.06364 0.00000
v 0.09849 -0.06364 0.03585
v 0.08029 -0.06364 0.06737
v 0.05240 -0.06364 0.09077
v 0.01820 -0.06364 0.10321
v -0.01820 -0.06364 0.10321
v -0.05240 -0.06364 0.09077
v -0.08029 -0.06364 0.06737
v -0.09849 -0.06364 0.03585
v -0.10481 -0.06364 0.00000
v -0.09849 -0.06364 -0.03585
v -0.08029 -0.06364 -0.06737
v -0.05240 -0.06364 -0.09077
v -0.01820 -0.06364 -0.10321
v 0.01820 -0.06364 -0.10321
v 0.05240 -0.06364 -0.09077
v 0.08029 -0.06364 -0.06737
v 0.09849 -0.06364 -0.03585
v 0.10481 -0.06364 -0.00000
v 0.11321 -0.04500 0.00000
v 0.10638 -0.04500 0.03872
v 0.08672 -0.04500 0.07277
v 0.05660 -0.04500 0.09804
v 0.01966 -0.04500 0.11149
v -0.01966 -0.04500 0.11149
v -0.05660 -0.04500 0.09804
v -0.08672 -0.04500 0.07277
v -0.10638 -0.04500 0.03872
v -0.11321 -0.04500 0.00000
v -0.10638 -0.04500 -0.03872
v -0.08672 -0.04500 -0.07277
v -0.05660 -0.04500 -0.09804
v -0.01966 -0.04500 -0.11149
v 0.01966 -0.04500 -0.11149
v 0.05660 -0.04500 -0.09804
v 0.08672 -0.04500 -0.07277
v 0.10638 -0.04500 -0.03872
v 0.11321 -0.04500 -0.00000
v 0.11830 -0.02329 0.00000
v 0.11116 -0.02329 0.04046
v 0.09062 -0.02329 0.07604
v 0.05915 -0.02329 0.10245
v 0.02054 -0.02329 0.11650
v -0.02054 -0.02329 0.11650
v -0.05915 -0.02329 0.10245
v -0.09062 -0.02329 0.07604
v -0.11116 -0.02329 0.04046
v -0.11830 -0.02329 0.00000
v -0.11116 -0.02329 -0.04046
v -0.09062 -0.02329 -0.07604
v -0.05915 -0.02329 -0.10245
v -0.02054 -0.02329 -0.11650
v 0.02054 -0.02329 -0.11650
v 0.05915 -0.02329 -0.10245
v 0.09062 -0.02329 -0.07604
v 0.11116 -0.02329 -0.04046
v 0.11830 -0.02329 -0.00000
v 0.12000 0.00000 0.00000
v 0.11276 0.00000 0.04104
v 0.09193 0.00000 0.07713
v 0.06000 0.00000 0.10392
v 0.02084 0.00000 0.11818
v -0.02084 0.00000 0.11818
v -0.06000 0.00000 0.10392
v -0.09193 0.00000 0.07713
v -0.11276 0.00000 0.04104
v -0.12000 0.00000 0.00000
v -0.11276 0.00000 -0.04104
v -0.09193 0.00000 -0.07713
v -0.06000 0.00000 -0.10392
v -0.02084 0.00000 -0.11818
v 0.02084 0.00000 -0.11818
v 0.06000 0.00000 -0.10392
v 0.09193 0.00000 -0.07713
v 0.11276 0.00000 -0.04104
v 0.12000 0.00000 -0.00000
v 0.11830 0.02329 0.00000
v 0.11116 0.02329 0.04046
v 0.09062 0.02329 0.07604
v 0.05915 0.02329 0.10245
v 0.02054 0.02329 0.11650
v -0.02054 0.02329 0.11650
v -0.05915 0.02329 0.10245
v -0.09062 0.02329 0.07604
v -0.11116 0.02329 0.04046
v -0.11830 0.02329 0.00000
v -0.11116 0.02329 -0.04046
v -0.09062 0.02329 -0.07604
v -0.05915 0.02329 -0.10245
v -0.02054 0.02329 -0.11650
v 0.02054 0.02329 -0.11650
v 0.05915 0.02329 -0.10245
v 0.09062 0.02329 -0.07604
v 0.11116 0.02329 -0.04046
v 0.11830 0.02329 -0.00000
v 0.11321 0.04500 0.00000
v 0.10638 0.04500 0.03872
v 0.08672 0.04500 0.07277
v 0.05660 0.04500 0.09804
v 0.01966 0.04500 0.11149
v -0.01966 0.04500 0.11149
v -0.05660 0.04500 0.09804
v -0.08672 0.04500 0.07277
v -0.10638 0.04500 0.03872
v -0.11321 0.04500 0.00000
v -0.10638 0.04500 -0.03872
v -0.08672 0.04500 -0.07277
v -0.05660 0.04500 -0.09804
v -0.01966 0.04500 -0.11149
v 0.01966 0.04500 -0.11149
v 0.05660 0.04500 -0.09804
v 0.08672 0.04500 -0.07277
v 0.10638 0.04500 -0.03872
v 0.11321 0.04500 -0.00000
v 0.10481 0.06364 0.00000
v 0.09849 0.06364 0.03585
v 0.08029 0.06364 0.06737
v 0.05240 0.06364 0.09077
v 0.01820 0.06364 0.10321
v -0.01820 0.06364 0.10321
v -0.05240 0.06364 0.09077
v -0.08029 0.06364 0.06737
v -0.09849 0.06364 0.03585
v -0.10481 0.06364 0.00000
v -0.09849 0.06364 -0.03585
v -0.08029 0.06364 -0.06737
v -0.05240 0.06364 -0.09077
v -0.01820 0.06364 -0.10321
v 0.01820 0.06364 -0.10321
v 0.05240 0.06364 -0.09077
v 0.08029 0.06364 -0.06737
v 0.09849 0.06364 -0.03585
v 0.10481 0.06364 -0.00000
v 0.09319 0.07794 0.00000
v 0.08757 0.07794 0.03187
v 0.07138 0.07794 0.05990
v 0.04659 0.07794 0.08070
v 0.01618 0.07794 0.09177
v -0.01618 0.07794 0.09177
v -0.04659 0.07794 0.08070
v -0.07138 0.07794 0.05990
v -0.08757 0.07794 0.03187
v -0.09319 0.07794 0.00000
v -0.08757 0.07794 -0.03187
v -0.07138 0.07794 -0.05990
v -0.04659 0.07794 -0.08070
v -0.01618 0.07794 -0.09177
v 0.01618 0.07794 -0.09177
v 0.04659 0.07794 -0.08070
v 0.07138 0.07794 -0.05990
v 0.08757 0.07794 -0.03187
v 0.09319 0.07794 -0.00000
v 0.07844 0.08693 0.00000
v 0.07371 0.08693 0.02683
v 0.06009 0.08693 0.05042
v 0.03922 0.08693 0.06793
v 0.01362 0.08693 0.07725
v -0.01362 0.08693 0.07725
v -0.03922 0.08693 0.06793
v -0.06009 0.08693 0.05042
v -0.07371 0.08693 0.02683
v -0.07844 0.08693 0.00000
v -0.07371 0.08693 -0.02683
v -0.06009 0.08693 -0.05042
v -0.03922 0.08693 -0.06793
v -0.01362 0.08693 -0.07725
v 0.01362 0.08693 -0.07725
v 0.03922 0.08693 -0.06793
v 0.06009 0.08693 -0.05042
v 0.07371 0.08693 -0.02683
v 0.07844 0.08693 -0.00000
v 0.06061 0.09000 0.00000
v 0.05695 0.09000 0.02073
v 0.04643 0.09000 0.03896
v 0.03030 0.09000 0.05249
v 0.01052 0.09000 0.05969
v -0.01052 0.09000 0.05969
v -0.03030 0.09000 0.05249
v -0.04643 0.09000 0.03896
v -0.05695 0.09000 0.02073
v -0.06061 0.09000 0.00000
v -0.05695 0.09000 -0.02073
v -0.04643 0.09000 -0.03896
v -0.03030 0.09000 -0.05249
v -0.01052 0.09000 -0.05969
v 0.01052 0.09000 -0.05969
v 0.03030 0.09000 -0.05249
v 0.04643 0.09000 -0.03896
v 0.05695 0.09000 -0.02073
v 0.06061 0.09000 -0.00000
v 0.04800 0.12800 0.00000
v 0.04507 0.12800 0.00707
v 0.03800 0.12800 0.01000
v 0.03093 0.12800 0.00707
v 0.02800 0.12800 0.00000
v 0.03093 0.12800 -0.00707
v 0.03800 0.12800 -0.01000
v 0.04507 0.12800 -0.00707
v 0.04325 0.14883 0.00000
v 0.04061 0.14756 0.00707
v 0.03424 0.14449 0.01000
v 0.02787 0.14142 0.00707
v 0.02523 0.14015 0.00000
v 0.02787 0.14142 -0.00707
v 0.03424 0.14449 -0.01000
v 0.04061 0.14756 -0.00707
v 0.02993 0.16553 0.00000
v 0.02810 0.16324 0.00707
v 0.02369 0.15771 0.01000
v 0.01928 0.15218 0.00707
v 0.01746 0.14989 0.00000
v 0.01928 0.15218 -0.00707
v 0.02369 0.15771 -0.01000
v 0.02810 0.16324 -0.00707
v 0.01068 0.17480 0.00000
v 0.01003 0.17194 0.00707
v 0.00846 0.16505 0.01000
v 0.00688 0.15815 0.00707
v 0.00623 0.15530 0.00000
v 0.00688 0.15815 -0.00707
v 0.00846 0.16505 -0.01000
v 0.01003 0.17194 -0.00707
v -0.01068 0.17480 0.00000
v -0.01003 0.17194 0.00707
v -0.00846 0.16505 0.01000
v -0.00688 0.15815 0.00707
v -0.00623 0.15530 0.00000
v -0.00688 0.15815 -0.00707
v -0.00846 0.16505 -0.01000
v -0.01003 0.17194 -0.00707
v -0.02993 0.16553 0.00000
v -0.02810 0.16324 0.00707
v -0.02369 0.15771 0.01000
v -0.01928 0.15218 0.00707
v -0.01746 0.14989 0.00000
v -0.01928 0.15218 -0.00707
v -0.02369 0.15771 -0.01000
v -0.02810 0.16324 -0.00707
v -0.04325 0.14883 0.00000
v -0.04061 0.14756 0.00707
v -0.03424 0.14449 0.01000
v -0.02787 0.14142 0.00707
v -0.02523 0.14015 0.00000
v -0.02787 0.14142 -0.00707
v -0.03424 0.14449 -0.01000
v -0.04061 0.14756 -0.00707
v -0.04800 0.12800 0.00000
v -0.04507 0.12800 0.00707
v -0.03800 0.12800 0.01000
v -0.03093 0.12800 0.00707
v -0.02800 0.12800 0.00000
v -0.03093 0.12800 -0.00707
v -0.03800 0.12800 -0.01000
v -0.04507 0.12800 -0.00707
v -0.04325 0.10717 0.00000
v -0.04061 0.10844 0.00707
v -0.03424 0.11151 0.01000
v -0.02787 0.11458 0.00707
v -0.02523 0.11585 0.00000
v -0.02787 0.11458 -0.00707
v -0.03424 0.11151 -0.01000
v -0.04061 0.10844 -0.00707
v -0.02993 0.09047 0.00000
v -0.02810 0.09276 0.00707
v -0.02369 0.09829 0.01000
v -0.01928 0.10382 0.00707
v -0.01746 0.10611 0.00000
v -0.01928 0.10382 -0.00707
v -0.02369 0.09829 -0.01000
v -0.02810 0.09276 -0.00707
v -0.01068 0.08120 0.00000
v -0.01003 0.08406 0.00707
v -0.00846 0.09095 0.01000
v -0.00688 0.09785 0.00707
v -0.00623 0.10070 0.00000
v -0.00688 0.09785 -0.00707
v -0.00846 0.09095 -0.01000
v -0.01003 0.08406 -0.00707
v 0.01068 0.08120 0.00000
v 0.01003 0.08406 0.00707
v 0.00846 0.09095 0.01000
v 0.00688 0.09785 0.00707
v 0.00623 0.10070 0.00000
v 0.00688 0.09785 -0.00707
v 0.00846 0.09095 -0.01000
v 0.01003 0.08406 -0.00707
v 0.02993 0.09047 0.00000
v 0.02810 0.09276 0.00707
v 0.02369 0.09829 0.01000
v 0.01928 0.10382 0.00707
v 0.01746 0.10611 0.00000
v 0.01928 0.10382 -0.00707
v 0.02369 0.09829 -0.01000
v 0.02810 0.09276 -0.00707
v 0.04325 0.10717 0.00000
v 0.04061 0.10844 0.00707
v 0.03424 0.11151 0.01000
v 0.02787 0.11458 0.00707
v 0.02523 0.11585 0.00000
v 0.02787 0.11458 -0.00707
v 0.03424 0.11151 -0.01000
v 0.04061 0.10844 -0.00707
vt 0.00000 0.00000
vt 0.05556 0.00000
vt 0.11111 0.00000
vt 0.16667 0.00000
vt 0.22222 0.00000
vt 0.27778 0.00000
vt 0.33333 0.00000
vt 0.38889 0.00000
vt 0.44444 0.00000
vt 0.50000 0.00000
vt 0.55556 0.00000
vt 0.61111 0.00000
vt 0.66667 0.00000
vt 0.72222 0.00000
vt 0.77778 0.00000
vt 0.83333 0.00000
vt 0.88889 0.00000
vt 0.94444 0.00000
vt 1.00000 0.00000
vt 0.00000 0.08333
vt 0.05556 0.08333
vt 0.11111 0.08333
vt 0.16667 0.08333
vt 0.22222 0.08333
vt 0.27778 0.08333
vt 0.33333 0.08333
vt 0.38889 0.08333
vt 0.44444 0.08333
vt 0.50000 0.08333
vt 0.55556 0.08333
vt 0.61111 0.08333
vt 0.66667 0.08333
vt 0.72222 0.08333
vt 0.77778 0.08333
vt 0.83333 0.08333
vt 0.88889 0.08333
vt 0.94444 0.08333
vt 1.00000 0.08333
vt 0.00000 0.16667
vt 0.05556 0.16667
vt 0.11111 0.16667
vt 0.16667 0.16667
vt 0.22222 0.16667
vt 0.27778 0.16667
vt 0.33333 0.16667
vt 0.38889 0.16667
vt 0.44444 0.16667
vt 0.50000 0.16667
vt 0.55556 0.16667
vt 0.61111 0.16667
vt 0.66667 0.16667
vt 0.72222 0.16667
vt 0.77778 0.16667
vt 0.83333 0.16667
vt 0.88889 0.16667
vt 0.94444 0.16667
vt 1.00000 0.16667
vt 0.00000 0.25000
vt 0.05556 0.25000
vt 0.11111 0.25000
vt 0.16667 0.25000
vt 0.22222 0.25000
vt 0.27778 0.25000
vt 0.33333 0.25000
vt 0.38889 0.25000
vt 0.44444 0.25000
vt 0.50000 0.25000
vt 0.55556 0.25000
vt 0.61111 0.25000
vt 0.66667 0.25000
vt 0.72222 0.25000
vt 0.77778 0.25000
vt 0.83333 0.25000
vt 0.88889 0.25000
vt 0.94444 0.25000
vt 1.00000 0.25000
vt 0.00000 0.33333
vt 0.05556 0.33333
vt 0.11111 0.33333
vt 0.16667 0.33333
vt 0.22222 0.33333
vt 0.27778 0.33333
vt 0.33333 0.33333
vt 0.38889 0.33333
vt 0.44444 0.33333
vt 0.50000 0.33333
vt 0.55556 0.33333
vt 0.61111 0.33333
vt 0.66667 0.33333
vt 0.72222 0.33333
vt 0.77778 0.33333
vt 0.83333 0.33333
vt 0.88889 0.33333
vt 0.94444 0.33333
vt 1.00000 0.33333
vt 0.00000 0.41667
vt 0.05556 0.41667
vt 0.11111 0.41667
vt 0.16667 0.41667
vt 0.22222 0.41667
vt 0.27778 0.41667
vt 0.33333 0.41667
vt 0.38889 0.41667
vt 0.44444 0.41667
vt 0.50000 0.41667
vt 0.55556 0.41667
vt 0.61111 0.41667
vt 0.66667 0.41667
vt 0.72222 0.41667
vt 0.77778 0.41667
vt 0.83333 0.41667
vt 0.88889 0.41667
vt 0.94444 0.41667
vt 1.00000 0.41667
vt 0.00000 0.50000
vt 0.05556 0.50000
vt 0.11111 0.50000
vt 0.16667 0.50000
vt 0.22222 0.50000
vt 0.27778 0.50000
vt 0.33333 0.50000
vt 0.38889 0.50000
vt 0.44444 0.50000
vt 0.50000 0.50000
vt 0.55556 0.50000
vt 0.61111 0.50000
vt 0.66667 0.50000
vt 0.72222 0.50000
vt 0.77778 0.50000
vt 0.83333 0.50000
vt 0.88889 0.50000
vt 0.94444 0.50000
vt 1.00000 0.50000
vt 0.00000 0.58333
vt 0.05556 0.58333
vt 0.11111 0.58333
vt 0.16667 0.58333
vt 0.22222 0.58333
vt 0.27778 0.58333
vt 0.33333 0.58333
vt 0.38889 0.58333
vt 0.44444 0.58333
vt 0.50000 0.58333
vt 0.55556 0.58333
vt 0.61111 0.58333
vt 0.66667 0.58333
vt 0.72222 0.58333
vt 0.77778 0.58333
vt 0.83333 0.58333
vt 0.88889 0.58333
vt 0.94444 0.58333
vt 1.00000 0.58333
vt 0.00000 0.66667
vt 0.05556 0.66667
vt 0.11111 0.66667
vt 0.16667 0.66667
vt 0.22222 0.66667
vt 0.27778 0.66667
vt 0.33333 0.66667
vt 0.38889 0.66667
vt 0.44444 0.66667
vt 0.50000 0.66667
vt 0.55556 0.66667
vt 0.61111 0.66667
vt 0.66667 0.66667
vt 0.72222 0.66667
vt 0.77778 0.66667
vt 0.83333 0.66667
vt 0.88889 0.66667
vt 0.94444 0.66667
vt 1.00000 0.66667
vt 0.00000 0.75000
vt 0.05556 0.75000
vt 0.11111 0.75000
vt 0.16667 0.75000
vt 0.22222 0.75000
vt 0.27778 0.75000
vt 0.33333 0.75000
vt 0.38889 0.75000
vt 0.44444 0.75000
vt 0.50000 0.75000
vt 0.55556 0.75000
vt 0.61111 0.75000
vt 0.66667 0.75000
vt 0.72222 0.75000
vt 0.77778 0.75000
vt 0.83333 0.75000
vt 0.88889 0.75000
vt 0.94444 0.75000
vt 1.00000 0.75000
vt 0.00000 0.83333
vt 0.05556 0.83333
vt 0.11111 0.83333
vt 0.16667 0.83333
vt 0.22222 0.83333
vt 0.27778 0.83333
vt 0.33333 0.83333
vt 0.38889 0.83333
vt 0.44444 0.83333
vt 0.50000 0.83333
vt 0.55556 0.83333
vt 0.61111 0.83333
vt 0.66667 0.83333
vt 0.72222 0.83333
vt 0.77778 0.83333
vt 0.83333 0.83333
vt 0.88889 0.83333
vt 0.94444 0.83333
vt 1.00000 0.83333
vt 0.00000 0.91667
vt 0.05556 0.91667
vt 0.11111 0.91667
vt 0.16667 0.91667
vt 0.22222 0.91667
vt 0.27778 0.91667
vt 0.33333 0.91667
vt 0.38889 0.91667
vt 0.44444 0.91667
vt 0.50000 0.91667
vt 0.55556 0.91667
vt 0.61111 0.91667
vt 0.66667 0.91667
vt 0.72222 0.91667
vt 0.77778 0.91667
vt 0.83333 0.91667
vt 0.88889 0.91667
vt 0.94444 0.91667
vt 1.00000 0.91667
vt 0.00000 1.00000
vt 0.05556 1.00000
vt 0.11111 1.00000
vt 0.16667 1.00000
vt 0.22222 1.00000
vt 0.27778 1.00000
vt 0.33333 1.00000
vt 0.38889 1.00000
vt 0.44444 1.00000
vt 0.50000 1.00000
vt 0.55556 1.00000
vt 0.61111 1.00000
vt 0.66667 1.00000
vt 0.72222 1.00000
vt 0.77778 1.00000
vt 0.83333 1.00000
vt 0.88889 1.00000
vt 0.94444 1.00000
vt 1.00000 1.00000
vt 0.00000 0.15000
vt 0.00000 0.15000
vt 0.00000 0.15000
vt 0.00000 0.15000
vt 0.00000 0.15000
vt 0.00000 0.15000
vt 0.00000 0.15000
vt 0.00000 0.15000
vt 0.07143 0.15000
vt 0.07143 0.15000
vt 0.07143 0.15000
vt 0.07143 0.15000
vt 0.07143 0.15000
vt 0.07143 0.15000
vt 0.07143 0.15000
vt 0.07143 0.15000
vt 0.14286 0.15000
vt 0.14286 0.15000
vt 0.14286 0.15000
vt 0.14286 0.15000
vt 0.14286 0.15000
vt 0.14286 0.15000
vt 0.14286 0.15000
vt 0.14286 0.15000
vt 0.21429 0.15000
vt 0.21429 0.15000
vt 0.21429 0.15000
vt 0.21429 0.15000
vt 0.21429 0.15000
vt 0.21429 0.15000
vt 0.21429 0.15000
vt 0.21429 0.15000
vt 0.28571 0.15000
vt 0.28571 0.15000
vt 0.28571 0.15000
vt 0.28571 0.15000
vt 0.28571 0.15000
vt 0.28571 0.15000
vt 0.28571 0.15000
vt 0.28571 0.15000
vt 0.35714 0.15000
vt 0.35714 0.15000
vt 0.35714 0.15000
vt 0.35714 0.15000
vt 0.35714 0.15000
vt 0.35714 0.15000
vt 0.35714 0.15000
vt 0.35714 0.15000
vt 0.42857 0.15000
vt 0.42857 0.15000
vt 0.42857 0.15000
vt 0.42857 0.15000
vt 0.42857 0.15000
vt 0.42857 0.15000
vt 0.42857 0.15000
vt 0.42857 0.15000
vt 0.50000 0.15000
vt 0.50000 0.15000
vt 0.50000 0.15000
vt 0.50000 0.15000
vt 0.50000 0.15000
vt 0.50000 0.15000
vt 0.50000 0.15000
vt 0.50000 0.15000
vt 0.57143 0.15000
vt 0.57143 0.15000
vt 0.57143 0.15000
vt 0.57143 0.15000
vt 0.57143 0.15000
vt 0.57143 0.15000
vt 0.57143 0.15000
vt 0.57143 0.15000
vt 0.64286 0.15000
vt 0.64286 0.15000
vt 0.64286 0.15000
vt 0.64286 0.15000
vt 0.64286 0.15000
vt 0.64286 0.15000
vt 0.64286 0.15000
vt 0.64286 0.15000
vt 0.71429 0.15000
vt 0.71429 0.15000
vt 0.71429 0.15000
vt 0.71429 0.15000
vt 0.71429 0.15000
vt 0.71429 0.15000
vt 0.71429 0.15000
vt 0.71429 0.15000
vt 0.78571 0.15000
vt 0.78571 0.15000
vt 0.78571 0.15000
vt 0.78571 0.15000
vt 0.78571 0.15000
vt 0.78571 0.15000
vt 0.78571 0.15000
vt 0.78571 0.15000
vt 0.85714 0.15000
vt 0.85714 0.15000
vt 0.85714 0.15000
vt 0.85714 0.15000
vt 0.85714 0.15000
vt 0.85714 0.15000
vt 0.85714 0.15000
vt 0.85714 0.15000
vt 0.92857 0.15000
vt 0.92857 0.15000
vt 0.92857 0.15000
vt 0.92857 0.15000
vt 0.92857 0.15000
vt 0.92857 0.15000
vt 0.92857 0.15000
vt 0.92857 0.15000
vn 0.85749 -0.51450 0.00000
vn 0.80578 -0.51450 0.29328
vn 0.65688 -0.51450 0.55119
vn 0.42875 -0.51450 0.74261
vn 0.14890 -0.51450 0.84447
vn -0.14890 -0.51450 0.84447
vn -0.42875 -0.51450 0.74261
vn -0.65688 -0.51450 0.55119
vn -0.80578 -0.51450 0.29328
vn -0.85749 -0.51450 0.00000
vn -0.80578 -0.51450 -0.29328
vn -0.65688 -0.51450 -0.55119
vn -0.42875 -0.51450 -0.74261
vn -0.14890 -0.51450 -0.84447
vn 0.14890 -0.51450 -0.84447
vn 0.42875 -0.51450 -0.74261
vn 0.65688 -0.51450 -0.55119
vn 0.80578 -0.51450 -0.29328
vn 0.85749 -0.51450 -0.00000
vn 0.86520 -0.50143 0.00000
vn 0.81302 -0.50143 0.29592
vn 0.66278 -0.50143 0.55614
vn 0.43260 -0.50143 0.74928
vn 0.15024 -0.50143 0.85205
vn -0.15024 -0.50143 0.85205
vn -0.43260 -0.50143 0.74928
vn -0.66278 -0.50143 0.55614
vn -0.81302 -0.50143 0.29592
vn -0.86520 -0.50143 0.00000
vn -0.81302 -0.50143 -0.29592
vn -0.66278 -0.50143 -0.55614
vn -0.43260 -0.50143 -0.74928
vn -0.15024 -0.50143 -0.85205
vn 0.15024 -0.50143 -0.85205
vn 0.43260 -0.50143 -0.74928
vn 0.66278 -0.50143 -0.55614
vn 0.81302 -0.50143 -0.29592
vn 0.86520 -0.50143 -0.00000
vn 0.88736 -0.46108 0.00000
vn 0.83384 -0.46108 0.30349
vn 0.67975 -0.46108 0.57038
vn 0.44368 -0.46108 0.76847
vn 0.15409 -0.46108 0.87388
vn -0.15409 -0.46108 0.87388
vn -0.44368 -0.46108 0.76847
vn -0.67975 -0.46108 0.57038
vn -0.83384 -0.46108 0.30349
vn -0.88736 -0.46108 0.00000
vn -0.83384 -0.46108 -0.30349
vn -0.67975 -0.46108 -0.57038
vn -0.44368 -0.46108 -0.76847
vn -0.15409 -0.46108 -0.87388
vn 0.15409 -0.46108 -0.87388
vn 0.44368 -0.46108 -0.76847
vn 0.67975 -0.46108 -0.57038
vn 0.83384 -0.46108 -0.30349
vn 0.88736 -0.46108 -0.00000
vn 0.92057 -0.39057 0.00000
vn 0.86506 -0.39057 0.31486
vn 0.70520 -0.39057 0.59173
vn 0.46029 -0.39057 0.79724
vn 0.15986 -0.39057 0.90659
vn -0.15986 -0.39057 0.90659
vn -0.46029 -0.39057 0.79724
vn -0.70520 -0.39057 0.59173
vn -0.86506 -0.39057 0.31486
vn -0.92057 -0.39057 0.00000
vn -0.86506 -0.39057 -0.31486
vn -0.70520 -0.39057 -0.59173
vn -0.46029 -0.39057 -0.79724
vn -0.15986 -0.39057 -0.90659
vn 0.15986 -0.39057 -0.90659
vn 0.46029 -0.39057 -0.79724
vn 0.70520 -0.39057 -0.59173
vn 0.86506 -0.39057 -0.31486
vn 0.92057 -0.39057 -0.00000
vn 0.95783 -0.28735 0.00000
vn 0.90006 -0.28735 0.32760
vn 0.73374 -0.28735 0.61568
vn 0.47891 -0.28735 0.82950
vn 0.16632 -0.28735 0.94327
vn -0.16632 -0.28735 0.94327
vn -0.47891 -0.28735 0.82950
vn -0.73374 -0.28735 0.61568
vn -0.90006 -0.28735 0.32760
vn -0.95783 -0.28735 0.00000
vn -0.90006 -0.28735 -0.32760
vn -0.73374 -0.28735 -0.61568
vn -0.47891 -0.28735 -0.82950
vn -0.16632 -0.28735 -0.94327
vn 0.16632 -0.28735 -0.94327
vn 0.47891 -0.28735 -0.82950
vn 0.73374 -0.28735 -0.61568
vn 0.90006 -0.28735 -0.32760
vn 0.95783 -0.28735 -0.00000
vn 0.98816 -0.15345 0.00000
vn 0.92856 -0.15345 0.33797
vn 0.75697 -0.15345 0.63517
vn 0.49408 -0.15345 0.85577
vn 0.17159 -0.15345 0.97314
vn -0.17159 -0.15345 0.97314
vn -0.49408 -0.15345 0.85577
vn -0.75697 -0.15345 0.63517
vn -0.92856 -0.15345 0.33797
vn -0.98816 -0.15345 0.00000
vn -0.92856 -0.15345 -0.33797
vn -0.75697 -0.15345 -0.63517
vn -0.49408 -0.15345 -0.85577
vn -0.17159 -0.15345 -0.97314
vn 0.17159 -0.15345 -0.97314
vn 0.49408 -0.15345 -0.85577
vn 0.75697 -0.15345 -0.63517
vn 0.92856 -0.15345 -0.33797
vn 0.98816 -0.15345 -0.00000
vn 1.00000 0.00000 0.00000
vn 0.93969 0.00000 0.34202
vn 0.76604 0.00000 0.64279
vn 0.50000 0.00000 0.86603
vn 0.17365 0.00000 0.98481
vn -0.17365 0.00000 0.98481
vn -0.50000 0.00000 0.86603
vn -0.76604 0.00000 0.64279
vn -0.93969 0.00000 0.34202
vn -1.00000 0.00000 0.00000
vn -0.93969 0.00000 -0.34202
vn -0.76604 0.00000 -0.64279
vn -0.50000 0.00000 -0.86603
vn -0.17365 0.00000 -0.98481
vn 0.17365 0.00000 -0.98481
vn 0.50000 0.00000 -0.86603
vn 0.76604 0.00000 -0.64279
vn 0.93969 0.00000 -0.34202
vn 1.00000 0.00000 -0.00000
vn 0.98816 0.15345 0.00000
vn 0.92856 0.15345 0.33797
vn 0.75697 0.15345 0.63517
vn 0.49408 0.15345 0.85577
vn 0.17159 0.15345 0.97314
vn -0.17159 0.15345 0.97314
vn -0.49408 0.15345 0.85577
vn -0.75697 0.15345 0.63517
vn -0.92856 0.15345 0.33797
vn -0.98816 0.15345 0.00000
vn -0.92856 0.15345 -0.33797
vn -0.75697 0.15345 -0.63517
vn -0.49408 0.15345 -0.85577
vn -0.17159 0.15345 -0.97314
vn 0.17159 0.15345 -0.97314
vn 0.49408 0.15345 -0.85577
vn 0.75697 0.15345 -0.63517
vn 0.92856 0.15345 -0.33797
vn 0.98816 0.15345 -0.00000
vn 0.95783 0.28735 0.00000
vn 0.90006 0.28735 0.32760
vn 0.73374 0.28735 0.61568
vn 0.47891 0.28735 0.82950
vn 0.16632 0.28735 0.94327
vn -0.16632 0.28735 0.94327
vn -0.47891 0.28735 0.82950
vn -0.73374 0.28735 0.61568
vn -0.90006 0.28735 0.32760
vn -0.95783 0.28735 0.00000
vn -0.90006 0.28735 -0.32760
vn -0.73374 0.28735 -0.61568
vn -0.47891 0.28735 -0.82950
vn -0.16632 0.28735 -0.94327
vn 0.16632 0.28735 -0.94327
vn 0.47891 0.28735 -0.82950
vn 0.73374 0.28735 -0.61568
vn 0.90006 0.28735 -0.32760
vn 0.95783 0.28735 -0.00000
vn 0.92057 0.39057 0.00000
vn 0.86506 0.39057 0.31486
vn 0.70520 0.39057 0.59173
vn 0.46029 0.39057 0.79724
vn 0.15986 0.39057 0.90659
vn -0.15986 0.39057 0.90659
vn -0.46029 0.39057 0.79724
vn -0.70520 0.39057 0.59173
vn -0.86506 0.39057 0.31486
vn -0.92057 0.39057 0.00000
vn -0.86506 0.39057 -0.31486
vn -0.70520 0.39057 -0.59173
vn -0.46029 0.39057 -0.79724
vn -0.15986 0.39057 -0.90659
vn 0.15986 0.39057 -0.90659
vn 0.46029 0.39057 -0.79724
vn 0.70520 0.39057 -0.59173
vn 0.86506 0.39057 -0.31486
vn 0.92057 0.39057 -0.00000
vn 0.88736 0.46108 0.00000
vn 0.83384 0.46108 0.30349
vn 0.67975 0.46108 0.57038
vn 0.44368 0.46108 0.76847
vn 0.15409 0.46108 0.87388
vn -0.15409 0.46108 0.87388
vn -0.44368 0.46108 0.76847
vn -0.67975 0.46108 0.57038
vn -0.83384 0.46108 0.30349
vn -0.88736 0.46108 0.00000
vn -0.83384 0.46108 -0.30349
vn -0.67975 0.46108 -0.57038
vn -0.44368 0.46108 -0.76847
vn -0.15409 0.46108 -0.87388
vn 0.15409 0.46108 -0.87388
vn 0.44368 0.46108 -0.76847
vn 0.67975 0.46108 -0.57038
vn 0.83384 0.46108 -0.30349
vn 0.88736 0.46108 -0.00000
vn 0.86520 0.50143 0.00000
vn 0.81302 0.50143 0.29592
vn 0.66278 0.50143 0.55614
vn 0.43260 0.50143 0.74928
vn 0.15024 0.50143 0.85205
vn -0.15024 0.50143 0.85205
vn -0.43260 0.50143 0.74928
vn -0.66278 0.50143 0.55614
vn -0.81302 0.50143 0.29592
vn -0.86520 0.50143 0.00000
vn -0.81302 0.50143 -0.29592
vn -0.66278 0.50143 -0.55614
vn -0.43260 0.50143 -0.74928
vn -0.15024 0.50143 -0.85205
vn 0.15024 0.50143 -0.85205
vn 0.43260 0.50143 -0.74928
vn 0.66278 0.50143 -0.55614
vn 0.81302 0.50143 -0.29592
vn 0.86520 0.50143 -0.00000
vn 0.85749 0.51450 0.00000
vn 0.80578 0.51450 0.29328
vn 0.65688 0.51450 0.55119
vn 0.42875 0.51450 0.74261
vn 0.14890 0.51450 0.84447
vn -0.14890 0.51450 0.84447
vn -0.42875 0.51450 0.74261
vn -0.65688 0.51450 0.55119
vn -0.80578 0.51450 0.29328
vn -0.85749 0.51450 0.00000
vn -0.80578 0.51450 -0.29328
vn -0.65688 0.51450 -0.55119
vn -0.42875 0.51450 -0.74261
vn -0.14890 0.51450 -0.84447
vn 0.14890 0.51450 -0.84447
vn 0.42875 0.51450 -0.74261
vn 0.65688 0.51450 -0.55119
vn 0.80578 0.51450 -0.29328
vn 0.85749 0.51450 -0.00000
vn 1.00000 0.00000 0.00000
vn 0.70711 0.00000 0.70711
vn 0.00000 0.00000 1.00000
vn -0.70711 -0.00000 0.70711
vn -1.00000 -0.00000 0.00000
vn -0.70711 -0.00000 -0.70711
vn -0.00000 -0.00000 -1.00000
vn 0.70711 0.00000 -0.70711
vn 0.90097 0.43388 0.00000
vn 0.63708 0.30680 0.70711
vn 0.00000 0.00000 1.00000
vn -0.63708 -0.30680 0.70711
vn -0.90097 -0.43388 0.00000
vn -0.63708 -0.30680 -0.70711
vn -0.00000 -0.00000 -1.00000
vn 0.63708 0.30680 -0.70711
vn 0.62349 0.78183 0.00000
vn 0.44087 0.55284 0.70711
vn 0.00000 0.00000 1.00000
vn -0.44087 -0.55284 0.70711
vn -0.62349 -0.78183 0.00000
vn -0.44087 -0.55284 -0.70711
vn -0.00000 -0.00000 -1.00000
vn 0.44087 0.55284 -0.70711
vn 0.22252 0.97493 0.00000
vn 0.15735 0.68938 0.70711
vn 0.00000 0.00000 1.00000
vn -0.15735 -0.68938 0.70711
vn -0.22252 -0.97493 0.00000
vn -0.15735 -0.68938 -0.70711
vn -0.00000 -0.00000 -1.00000
vn 0.15735 0.68938 -0.70711
vn -0.22252 0.97493 0.00000
vn -0.15735 0.68938 0.70711
vn -0.00000 0.00000 1.00000
vn 0.15735 -0.68938 0.70711
vn 0.22252 -0.97493 0.00000
vn 0.15735 -0.68938 -0.70711
vn 0.00000 -0.00000 -1.00000
vn -0.15735 0.68938 -0.70711
vn -0.62349 0.78183 0.00000
vn -0.44087 0.55284 0.70711
vn -0.00000 0.00000 1.00000
vn 0.44087 -0.55284 0.70711
vn 0.62349 -0.78183 0.00000
vn 0.44087 -0.55284 -0.70711
vn 0.00000 -0.00000 -1.00000
vn -0.44087 0.55284 -0.70711
vn -0.90097 0.43388 0.00000
vn -0.63708 0.30680 0.70711
vn -0.00000 0.00000 1.00000
vn 0.63708 -0.30680 0.70711
vn 0.90097 -0.43388 0.00000
vn 0.63708 -0.30680 -0.70711
vn 0.00000 -0.00000 -1.00000
vn -0.63708 0.30680 -0.70711
vn -1.00000 0.00000 0.00000
vn -0.70711 0.00000 0.70711
vn -0.00000 0.00000 1.00000
vn 0.70711 -0.00000 0.70711
vn 1.00000 -0.00000 0.00000
vn 0.70711 -0.00000 -0.70711
vn 0.00000 -0.00000 -1.00000
vn -0.70711 0.00000 -0.70711
vn -0.90097 -0.43388 0.00000
vn -0.63708 -0.30680 0.70711
vn -0.00000 -0.00000 1.00000
vn 0.63708 0.30680 0.70711
vn 0.90097 0.43388 0.00000
vn 0.63708 0.30680 -0.70711
vn 0.00000 0.00000 -1.00000
vn -0.63708 -0.30680 -0.70711
vn -0.62349 -0.78183 0.00000
vn -0.44087 -0.55284 0.70711
vn -0.00000 -0.00000 1.00000
vn 0.44087 0.55284 0.70711
vn 0.62349 0.78183 0.00000
vn 0.44087 0.55284 -0.70711
vn 0.00000 0.00000 -1.00000
vn -0.44087 -0.55284 -0.70711
vn -0.22252 -0.97493 0.00000
vn -0.15735 -0.68938 0.70711
vn -0.00000 -0.00000 1.00000
vn 0.15735 0.68938 0.70711
vn 0.22252 0.97493 0.00000
vn 0.15735 0.68938 -0.70711
vn 0.00000 0.00000 -1.00000
vn -0.15735 -0.68938 -0.70711
vn 0.22252 -0.97493 0.00000
vn 0.15735 -0.68938 0.70711
vn 0.00000 -0.00000 1.00000
vn -0.15735 0.68938 0.70711
vn -0.22252 0.97493 0.00000
vn -0.15735 0.68938 -0.70711
vn -0.00000 0.00000 -1.00000
vn 0.15735 -0.68938 -0.70711
vn 0.62349 -0.78183 0.00000
vn 0.44087 -0.55284 0.70711
vn 0.00000 -0.00000 1.00000
vn -0.44087 0.55284 0.70711
vn -0.62349 0.78183 0.00000
vn -0.44087 0.55284 -0.70711
vn -0.00000 0.00000 -1.00000
vn 0.44087 -0.55284 -0.70711
vn 0.90097 -0.43388 0.00000
vn 0.63708 -0.30680 0.70711
vn 0.00000 -0.00000 1.00000
vn -0.63708 0.30680 0.70711
vn -0.90097 0.43388 0.00000
vn -0.63708 0.30680 -0.70711
vn -0.00000 0.00000 -1.00000
vn 0.63708 -0.30680 -0.70711
f 1/1/1 20/20/20 2/2/2
f 2/2/2 20/20/20 21/21/21
f 2/2/2 21/21/21 3/3/3
f 3/3/3 21/21/21 22/22/22
f 3/3/3 22/22/22 4/4/4
f 4/4/4 22/22/22 23/23/23
f 4/4/4 23/23/23 5/5/5
f 5/5/5 23/23/23 24/24/24
f 5/5/5 24/24/24 6/6/6
f 6/6/6 24/24/24 25/25/25
f 6/6/6 25/25/25 7/7/7
f 7/7/7 25/25/25 26/26/26
f 7/7/7 26/26/26 8/8/8
f 8/8/8 26/26/26 27/27/27
f 8/8/8 27/27/27 9/9/9
f 9/9/9 27/27/27 28/28/28
f 9/9/9 28/28/28 10/10/10
f 10/10/10 28/28/28 29/29/29
f 10/10/10 29/29/29 11/11/11
f 11/11/11 29/29/29 30/30/30
f 11/11/11 30/30/30 12/12/12
f 12/12/12 30/30/30 31/31/31
f 12/12/12 31/31/31 13/13/13
f 13/13/13 31/31/31 32/32/32
f 13/13/13 32/32/32 14/14/14
f 14/14/14 32/32/32 33/33/33
f 14/14/14 33/33/33 15/15/15
f 15/15/15 33/33/33 34/34/34
f 15/15/15 34/34/34 16/16/16
f 16/16/16 34/34/34 35/35/35
f 16/16/16 35/35/35 17/17/17
f 17/17/17 35/35/35 36/36/36
f 17/17/17 36/36/36 18/18/18
f 18/18/18 36/36/36 37/37/37
f 18/18/18 37/37/37 19/19/19
f 19/19/19 37/37/37 38/38/38
f 20/20/20 39/39/39 21/21/21
f 21/21/21 39/39/39 40/40/40
f 21/21/21 40/40/40 22/22/22
f 22/22/22 40/40/40 41/41/41
f 22/22/22 41/41/41 23/23/23
f 23/23/23 41/41/41 42/42/42
f 23/23/23 42/42/42 24/24/24
f 24/24/24 42/42/42 43/43/43
f 24/24/24 43/43/43 25/25/25
f 25/25/25 43/43/43 44/44/44
f 25/25/25 44/44/44 26/26/26
f 26/26/26 44/44/44 45/45/45
f 26/26/26 45/45/45 27/27/27
f 27/27/27 45/45/45 46/46/46
f 27/27/27 46/46/46 28/28/28
f 28/28/28 46/46/46 47/47/47
f 28/28/28 47/47/47 29/29/29
f 29/29/29 47/47/47 48/48/48
f 29/29/29 48/48/48 30/30/30
f 30/30/30 48/48/48 49/49/49
f 30/30/30 49/49/49 31/31/31
f 31/31/31 49/49/49 50/50/50
f 31/31/31 50/50/50 32/32/32
f 32/32/32 50/50/50 51/51/51
f 32/32/32 51/51/51 33/33/33
f 33/33/33 51/51/51 52/52/52
f 33/33/33 52/52/52 34/34/34
f 34/34/34 52/52/52 53/53/53
f 34/34/34 53/53/53 35/35/35
f 35/35/35 53/53/53 54/54/54
f 35/35/35 54/54/54 36/36/36
f 36/36/36 54/54/54 55/55/55
f 36/36/36 55/55/55 37/37/37
f 37/37/37 55/55/55 56/56/56
f 37/37/37 56/56/56 38/38/38
f 38/38/38 56/56/56 57/57/57
f 39/39/39 58/58/58 40/40/40
f 40/40/40 58/58/58 59/59/59
f 40/40/40 59/59/59 41/41/41
f 41/41/41 59/59/59 60/60/60
f 41/41/41 60/60/60 42/42/42
f 42/42/42 60/60/60 61/61/61
f 42/42/42 61/61/61 43/43/43
f 43/43/43 61/61/61 62/62/62
f 43/43/43 62/62/62 44/44/44
f 44/44/44 62/62/62 63/63/63
f 44/44/44 63/63/63 45/45/45
f 45/45/45 63/63/63 64/64/64
f 45/45/45 64/64/64 46/46/46
f 46/46/46 64/64/64 65/65/65
f 46/46/46 65/65/65 47/47/47
f 47/47/47 65/65/65 66/66/66
f 47/47/47 66/66/66 48/48/48
f 48/48/48 66/66/66 67/67/67
f 48/48/48 67/67/67 49/49/49
f 49/49/49 67/67/67 68/68/68
f 49/49/49 68/68/68 50/50/50
f 50/50/50 68/68/68 69/69/69
f 50/50/50 69/69/69 51/51/51
f 51/51/51 69/69/69 70/70/70
f 51/51/51 70/70/70 52/52/52
f 52/52/52 70/70/70 71/71/71
f 52/52/52 71/71/71 53/53/53
f 53/53/53 71/71/71 72/72/72
f 53/53/53 72/72/72 54/54/54
f 54/54/54 72/72/72 73/73/73
f 54/54/54 73/73/73 55/55/55
f 55/55/55 73/73/73 74/74/74
f 55/55/55 74/74/74 56/56/56
f 56/56/56 74/74/74 75/75/75
f 56/56/56 75/75/75 57/57/57
f 57/57/57 75/75/75 76/76/76
f 58/58/58 77/77/77 59/59/59
f 59/59/59 77/77/77 78/78/78
f 59/59/59 78/78/78 60/60/60
f 60/60/60 78/78/78 79/79/79
f 60/60/60 79/79/79 61/61/61
f 61/61/61 79/79/79 80/80/80
f 61/61/61 80/80/80 62/62/62
f 62/62/62 80/80/80 81/81/81
f 62/62/62 81/81/81 63/63/63
f 63/63/63 81/81/81 82/82/82
f 63/63/63 82/82/82 64/64/64
f 64/64/64 82/82/82 83/83/83
f 64/64/64 83/83/83 65/65/65
f 65/65/65 83/83/83 84/84/84
f 65/65/65 84/84/84 66/66/66
f 66/66/66 84/84/84 85/85/85
f 66/66/66 85/85/85 67/67/67
f 67/67/67 85/85/85 86/86/86
f 67/67/67 86/86/86 68/68/68
f 68/68/68 86/86/86 87/87/87
f 68/68/68 87/87/87 69/69/69
f 69/69/69 87/87/87 88/88/88
f 69/69/69 88/88/88 70/70/70
f 70/70/70 88/88/88 89/89/89
f 70/70/70 89/89/89 71/71/71
f 71/71/71 89/89/89 90/90/90
f 71/71/71 90/90/90 72/72/72
f 72/72/72 90/90/90 91/91/91
f 72/72/72 91/91/91 73/73/73
f 73/73/73 91/91/91 92/92/92
f 73/73/73 92/92/92 74/74/74
f 74/74/74 92/92/92 93/93/93
f 74/74/74 93/93/93 75/75/75
f 75/75/75 93/93/93 94/94/94
f 75/75/75 94/94/94 76/76/76
f 76/76/76 94/94/94 95/95/95
f 77/77/77 96/96/96 78/78/78
f 78/78/78 96/96/96 97/97/97
f 78/78/78 97/97/97 79/79/79
f 79/79/79 97/97/97 98/98/98
f 79/79/79 98/98/98 80/80/80
f 80/80/80 98/98/98 99/99/99
f 80/80/80 99/99/99 81/81/81
f 81/81/81 99/99/99 100/100/100
f 81/81/81 100/100/100 82/82/82
f 82/82/82 100/100/100 101/101/101
f 82/82/82 101/101/101 83/83/83
f 83/83/83 101/101/101 102/102/102
f 83/83/83 102/102/102 84/84/84
f 84/84/84 102/102/102 103/103/103
f 84/84/84 103/103/103 85/85/85
f 85/85/85 103/103/103 104/104/104
f 85/85/85 104/104/104 86/86/86
f 86/86/86 104/104/104 105/105/105
f 86/86/86 105/105/105 87/87/87
f 87/87/87 105/105/105 106/106/106
f 87/87/87 106/106/106 88/88/88
f 88/88/88 106/106/106 107/107/107
f 88/88/88 107/107/107 89/89/89
f 89/89/89 107/107/107 108/108/108
f 89/89/89 108/108/108 90/90/90
f 90/90/90 108/108/108 109/109/109
f 90/90/90 109/109/109 91/91/91
f 91/91/91 109/109/109 110/110/110
f 91/91/91 110/110/110 92/92/92
f 92/92/92 110/110/110 111/111/111
f 92/92/92 111/111/111 93/93/93
f 93/93/93 111/111/111 112/112/112
f 93/93/93 112/112/112 94/94/94
f 94/94/94 112/112/112 113/113/113
f 94/94/94 113/113/113 95/95/95
f 95/95/95 113/113/113 114/114/114
f 96/96/96 115/115/115 97/97/97
f 97/97/97 115/115/115 116/116/116
f 97/97/97 116/116/116 98/98/98
f 98/98/98 116/116/116 117/117/117
f 98/98/98 117/117/117 99/99/99
f 99/99/99 117/117/117 118/118/118
f 99/99/99 118/118/118 100/100/100
f 100/100/100 118/118/118 119/119/119
f 100/100/100 119/119/119 101/101/101
f 101/101/101 119/119/119 120/120/120
f 101/101/101 120/120/120 102/102/102
f 102/102/102 120/120/120 121/121/121
f 102/102/102 121/121/121 103/103/103
f 103/103/103 121/121/121 122/122/122
f 103/103/103 122/122/122 104/104/104
f 104/104/104 122/122/122 123/123/123
f 104/104/104 123/123/123 105/105/105
f 105/105/105 123/123/123 124/124/124
f 105/105/105 124/124/124 106/106/106
f 106/106/106 124/124/124 125/125/125
f 106/106/106 125/125/125 107/107/107
f 107/107/107 125/125/125 126/126/126
f 107/107/107 126/126/126 108/108/108
f 108/108/108 126/126/126 127/127/127
f 108/108/108 127/127/127 109/109/109
f 109/109/109 127/127/127 128/128/128
f 109/109/109 128/128/128 110/110/110
f 110/110/110 128/128/128 129/129/129
f 110/110/110 129/129/129 111/111/111
f 111/111/111 129/129/129 130/130/130
f 111/111/111 130/130/130 112/112/112
f 112/112/112 130/130/130 131/131/131
f 112/112/112 131/131/131 113/113/113
f 113/113/113 131/131/131 132/132/132
f 113/113/113 132/132/132 114/114/114
f 114/114/114 132/132/132 133/133/133
f 115/115/115 134/134/134 116/116/116
f 116/116/116 134/134/134 135/135/135
f 116/116/116 135/135/135 117/117/117
f 117/117/117 135/135/135 136/136/136
f 117/117/117 136/136/136 118/118/118
f 118/118/118 136/136/136 137/137/137
f 118/118/118 137/137/137 119/119/119
f 119/119/119 137/137/137 138/138/138
f 119/119/119 138/138/138 120/120/120
f 120/120/120 138/138/138 139/139/139
f 120/120/120 139/139/139 121/121/121
f 121/121/121 139/139/139 140/140/140
f 121/121/121 140/140/140 122/122/122
f 122/122/122 140/140/140 141/141/141
f 122/122/122 141/141/141 123/123/123
f 123/123/123 141/141/141 142/142/142
f 123/123/123 142/142/142 124/124/124
f 124/124/124 142/142/142 143/143/143
f 124/124/124 143/143/143 125/125/125
f 125/125/125 143/143/143 144/144/144
f 125/125/125 144/144/144 126/126/126
f 126/126/126 144/144/144 145/145/145
f 126/126/126 145/145/145 127/127/127
f 127/127/127 145/145/145 146/146/146
f 127/127/127 146/146/146 128/128/128
f 128/128/128 146/146/146 147/147/147
f 128/128/128 147/147/147 129/129/129
f 129/129/129 147/147/147 148/148/148
f 129/129/129 148/148/148 130/130/130
f 130/130/130 148/148/148 149/149/149
f 130/130/130 149/149/149 131/131/131
f 131/131/131 149/149/149 150/150/150
f 131/131/131 150/150/150 132/132/132
f 132/132/132 150/150/150 151/151/151
f 132/132/132 151/151/151 133/133/133
f 133/133/133 151/151/151 152/152/152
f 134/134/134 153/153/153 135/135/135
f 135/135/135 153/153/153 154/154/154
f 135/135/135 154/154/154 136/136/136
f 136/136/136 154/154/154 155/155/155
f 136/136/136 155/155/155 137/137/137
f 137/137/137 155/155/155 156/156/156
f 137/137/137 156/156/156 138/138/138
f 138/138/138 156/156/156 157/157/157
f 138/138/138 157/157/157 139/139/139
f 139/139/139 157/157/157 158/158/158
f 139/139/139 158/158/158 140/140/140
f 140/140/140 158/158/158 159/159/159
f 140/140/140 159/159/159 141/141/141
f 141/141/141 159/159/159 160/160/160
f 141/141/141 160/160/160 142/142/142
f 142/142/142 160/160/160 161/161/161
f 142/142/142 161/161/161 143/143/143
f 143/143/143 161/161/161 162/162/162
f 143/143/143 162/162/162 144/144/144
f 144/144/144 162/162/162 163/163/163
f 144/144/144 163/163/163 145/145/145
f 145/145/145 163/163/163 164/164/164
f 145/145/145 164/164/164 146/146/146
f 146/146/146 164/164/164 165/165/165
f 146/146/146 165/165/165 147/147/147
f 147/147/147 165/165/165 166/166/166
f 147/147/147 166/166/166 148/148/148
f 148/148/148 166/166/166 167/167/167
f 148/148/148 167/167/167 149/149/149
f 149/149/149 167/167/167 168/168/168
f 149/149/149 168/168/168 150/150/150
f 150/150/150 168/168/168 169/169/169
f 150/150/150 169/169/169 151/151/151
f 151/151/151 169/169/169 170/170/170
f 151/151/151 170/170/170 152/152/152
f 152/152/152 170/170/170 171/171/171
f 153/153/153 172/172/172 154/154/154
f 154/154/154 172/172/172 173/173/173
f 154/154/154 173/173/173 155/155/155
f 155/155/155 173/173/173 174/174/174
f 155/155/155 174/174/174 156/156/156
f 156/156/156 174/174/174 175/175/175
f 156/156/156 175/175/175 157/157/157
f 157/157/157 175/175/175 176/176/176
f 157/157/157 176/176/176 158/158/158
f 158/158/158 176/176/176 177/177/177
f 158/158/158 177/177/177 159/159/159
f 159/159/159 177/177/177 178/178/178
f 159/159/159 178/178/178 160/160/160
f 160/160/160 178/178/178 179/179/179
f 160/160/160 179/179/179 161/161/161
f 161/161/161 179/179/179 180/180/180
f 161/161/161 180/180/180 162/162/162
f 162/162/162 180/180/180 181/181/181
f 162/162/162 181/181/181 163/163/163
f 163/163/163 181/181/181 182/182/182
f 163/163/163 182/182/182 164/164/164
f 164/164/164 182/182/182 183/183/183
f 164/164/164 183/183/183 165/165/165
f 165/165/165 183/183/183 184/184/184
f 165/165/165 184/184/184 166/166/166
f 166/166/166 184/184/184 185/185/185
f 166/166/166 185/185/185 167/167/167
f 167/167/167 185/185/185 186/186/186
f 167/167/167 186/186/186 168/168/168
f 168/168/168 186/186/186 187/187/187
f 168/168/168 187/187/187 169/169/169
f 169/169/169 187/187/187 188/188/188
f 169/169/169 188/188/188 170/170/170
f 170/170/170 188/188/188 189/189/189
f 170/170/170 189/189/189 171/171/171
f 171/171/171 189/189/189 190/190/190
f 172/172/172 191/191/191 173/173/173
f 173/173/173 191/191/191 192/192/192
f 173/173/173 192/192/192 174/174/174
f 174/174/174 192/192/192 193/193/193
f 174/174/174 193/193/193 175/175/175
f 175/175/175 193/193/193 194/194/194
f 175/175/175 194/194/194 176/176/176
f 176/176/176 194/194/194 195/195/195
f 176/176/176 195/195/195 177/177/177
f 177/177/177 195/195/195 196/196/196
f 177/177/177 196/196/196 178/178/178
f 178/178/178 196/196/196 197/197/197
f 178/178/178 197/197/197 179/179/179
f 179/179/179 197/197/197 198/198/198
f 179/179/179 198/198/198 180/180/180
f 180/180/180 198/198/198 199/199/199
f 180/180/180 199/199/199 181/181/181
f 181/181/181 199/199/199 200/200/200
f 181/181/181 200/200/200 182/182/182
f 182/182/182 200/200/200 201/201/201
f 182/182/182 201/201/201 183/183/183
f 183/183/183 201/201/201 202/202/202
f 183/183/183 202/202/202 184/184/184
f 184/184/184 202/202/202 203/203/203
f 184/184/184 203/203/203 185/185/185
f 185/185/185 203/203/203 204/204/204
f 185/185/185 204/204/204 186/186/186
f 186/186/186 204/204/204 205/205/205
f 186/186/186 205/205/205 187/187/187
f 187/187/187 205/205/205 206/206/206
f 187/187/187 206/206/206 188/188/188
f 188/188/188 206/206/206 207/207/207
f 188/188/188 207/207/207 189/189/189
f 189/189/189 207/207/207 208/208/208
f 189/189/189 208/208/208 190/190/190
f 190/190/190 208/208/208 209/209/209
f 191/191/191 210/210/210 192/192/192
f 192/192/192 210/210/210 211/211/211
f 192/192/192 211/211/211 193/193/193
f 193/193/193 211/211/211 212/212/212
f 193/193/193 212/212/212 194/194/194
f 194/194/194 212/212/212 213/213/213
f 194/194/194 213/213/213 195/195/195
f 195/195/195 213/213/213 214/214/214
f 195/195/195 214/214/214 196/196/196
f 196/196/196 214/214/214 215/215/215
f 196/196/196 215/215/215 197/197/197
f 197/197/197 215/215/215 216/216/216
f 197/197/197 216/216/216 198/198/198
f 198/198/198 216/216/216 217/217/217
f 198/198/198 217/217/217 199/199/199
f 199/199/199 217/217/217 218/218/218
f 199/199/199 218/218/218 200/200/200
f 200/200/200 218/218/218 219/219/219
f 200/200/200 219/219/219 201/201/201
f 201/201/201 219/219/219 220/220/220
f 201/201/201 220/220/220 202/202/202
f 202/202/202 220/220/220 221/221/221
f 202/202/202 221/221/221 203/203/203
f 203/203/203 221/221/221 222/222/222
f 203/203/203 222/222/222 204/204/204
f 204/204/204 222/222/222 223/223/223
f 204/204/204 223/223/223 205/205/205
f 205/205/205 223/223/223 224/224/224
f 205/205/205 224/224/224 206/206/206
f 206/206/206 224/224/224 225/225/225
f 206/206/206 225/225/225 207/207/207
f 207/207/207 225/225/225 226/226/226
f 207/207/207 226/226/226 208/208/208
f 208/208/208 226/226/226 227/227/227
f 208/208/208 227/227/227 209/209/209
f 209/209/209 227/227/227 228/228/228
f 210/210/210 229/229/229 211/211/211
f 211/211/211 229/229/229 230/230/230
f 211/211/211 230/230/230 212/212/212
f 212/212/212 230/230/230 231/231/231
f 212/212/212 231/231/231 213/213/213
f 213/213/213 231/231/231 232/232/232
f 213/213/213 232/232/232 214/214/214
f 214/214/214 232/232/232 233/233/233
f 214/214/214 233/233/233 215/215/215
f 215/215/215 233/233/233 234/234/234
f 215/215/215 234/234/234 216/216/216
f 216/216/216 234/234/234 235/235/235
f 216/216/216 235/235/235 217/217/217
f 217/217/217 235/235/235 236/236/236
f 217/217/217 236/236/236 218/218/218
f 218/218/218 236/236/236 237/237/237
f 218/218/218 237/237/237 219/219/219
f 219/219/219 237/237/237 238/238/238
f 219/219/219 238/238/238 220/220/220
f 220/220/220 238/238/238 239/239/239
f 220/220/220 239/239/239 221/221/221
f 221/221/221 239/239/239 240/240/240
f 221/221/221 240/240/240 222/222/222
f 222/222/222 240/240/240 241/241/241
f 222/222/222 241/241/241 223/223/223
f 223/223/223 241/241/241 242/242/242
f 223/223/223 242/242/242 224/224/224
f 224/224/224 242/242/242 243/243/243
f 224/224/224 243/243/243 225/225/225
f 225/225/225 243/243/243 244/244/244
f 225/225/225 244/244/244 226/226/226
f 226/226/226 244/244/244 245/245/245
f 226/226/226 245/245/245 227/227/227
f 227/227/227 245/245/245 246/246/246
f 227/227/227 246/246/246 228/228/228
f 228/228/228 246/246/246 247/247/247
f 248/248/248 256/256/256 257/257/257
f 248/248/248 257/257/257 249/249/249
f 249/249/249 257/257/257 258/258/258
f 249/249/249 258/258/258 250/250/250
f 250/250/250 258/258/258 259/259/259
f 250/250/250 259/259/259 251/251/251
f 251/251/251 259/259/259 260/260/260
f 251/251/251 260/260/260 252/252/252
f 252/252/252 260/260/260 261/261/261
f 252/252/252 261/261/261 253/253/253
f 253/253/253 261/261/261 262/262/262
f 253/253/253 262/262/262 254/254/254
f 254/254/254 262/262/262 263/263/263
f 254/254/254 263/263/263 255/255/255
f 255/255/255 263/263/263 256/256/256
f 255/255/255 256/256/256 248/248/248
f 256/256/256 264/264/264 265/265/265
f 256/256/256 265/265/265 257/257/257
f 257/257/257 265/265/265 266/266/266
f 257/257/257 266/266/266 258/258/258
f 258/258/258 266/266/266 267/267/267
f 258/258/258 267/267/267 259/259/259
f 259/259/259 267/267/267 268/268/268
f 259/259/259 268/268/268 260/260/260
f 260/260/260 268/268/268 269/269/269
f 260/260/260 269/269/269 261/261/261
f 261/261/261 269/269/269 270/270/270
f 261/261/261 270/270/270 262/262/262
f 262/262/262 270/270/270 271/271/271
f 262/262/262 271/271/271 263/263/263
f 263/263/263 271/271/271 264/264/264
f 263/263/263 264/264/264 256/256/256
f 264/264/264 272/272/272 273/273/273
f 264/264/264 273/273/273 265/265/265
f 265/265/265 273/273/273 274/274/274
f 265/265/265 274/274/274 266/266/266
f 266/266/266 274/274/274 275/275/275
f 266/266/266 275/275/275 267/267/267
f 267/267/267 275/275/275 276/276/276
f 267/267/267 276/276/276 268/268/268
f 268/268/268 276/276/276 277/277/277
f 268/268/268 277/277/277 269/269/269
f 269/269/269 277/277/277 278/278/278
f 269/269/269 278/278/278 270/270/270
f 270/270/270 278/278/278 279/279/279
f 270/270/270 279/279/279 271/271/271
f 271/271/271 279/279/279 272/272/272
f 271/271/271 272/272/272 264/264/264
f 272/272/272 280/280/280 281/281/281
f 272/272/272 281/281/281 273/273/273
f 273/273/273 281/281/281 282/282/282
f 273/273/273 282/282/282 274/274/274
f 274/274/274 282/282/282 283/283/283
f 274/274/274 283/283/283 275/275/275
f 275/275/275 283/283/283 284/284/284
f 275/275/275 284/284/284 276/276/276
f 276/276/276 284/284/284 285/285/285
f 276/276/276 285/285/285 277/277/277
f 277/277/277 285/285/285 286/286/286
f 277/277/277 286/286/286 278/278/278
f 278/278/278 286/286/286 287/287/287
f 278/278/278 287/287/287 279/279/279
f 279/279/279 287/287/287 280/280/280
f 279/279/279 280/280/280 272/272/272
f 280/280/280 288/288/288 289/289/289
f 280/280/280 289/289/289 281/281/281
f 281/281/281 289/289/289 290/290/290
f 281/281/281 290/290/290 282/282/282
f 282/282/282 290/290/290 291/291/291
f 282/282/282 291/291/291 283/283/283
f 283/283/283 291/291/291 292/292/292
f 283/283/283 292/292/292 284/284/284
f 284/284/284 292/292/292 293/293/293
f 284/284/284 293/293/293 285/285/285
f 285/285/285 293/293/293 294/294/294
f 285/285/285 294/294/294 286/286/286
f 286/286/286 294/294/294 295/295/295
f 286/286/286 295/295/295 287/287/287
f 287/287/287 295/295/295 288/288/288
f 287/287/287 288/288/288 280/280/280
f 288/288/288 296/296/296 297/297/297
f 288/288/288 297/297/297 289/289/289
f 289/289/289 297/297/297 298/298/298
f 289/289/289 298/298/298 290/290/290
f 290/290/290 298/298/298 299/299/299
f 290/290/290 299/299/299 291/291/291
f 291/291/291 299/299/299 300/300/300
f 291/291/291 300/300/300 292/292/292
f 292/292/292 300/300/300 301/301/301
f 292/292/292 301/301/301 293/293/293
f 293/293/293 301/301/301 302/302/302
f 293/293/293 302/302/302 294/294/294
f 294/294/294 302/302/302 303/303/303
f 294/294/294 303/303/303 295/295/295
f 295/295/295 303/303/303 296/296/296
f 295/295/295 296/296/296 288/288/288
f 296/296/296 304/304/304 305/305/305
f 296/296/296 305/305/305 297/297/297
f 297/297/297 305/305/305 306/306/306
f 297/297/297 306/306/306 298/298/298
f 298/298/298 306/306/306 307/307/307
f 298/298/298 307/307/307 299/299/299
f 299/299/299 307/307/307 308/308/308
f 299/299/299 308/308/308 300/300/300
f 300/300/300 308/308/308 309/309/309
f 300/300/300 309/309/309 301/301/301
f 301/301/301 309/309/309 310/310/310
f 301/301/301 310/310/310 302/302/302
f 302/302/302 310/310/310 311/311/311
f 302/302/302 311/311/311 303/303/303
f 303/303/303 311/311/311 304/304/304
f 303/303/303 304/304/304 296/296/296
f 304/304/304 312/312/312 313/313/313
f 304/304/304 313/313/313 305/305/305
f 305/305/305 313/313/313 314/314/314
f 305/305/305 314/314/314 306/306/306
f 306/306/306 314/314/314 315/315/315
f 306/306/306 315/315/315 307/307/307
f 307/307/307 315/315/315 316/316/316
f 307/307/307 316/316/316 308/308/308
f 308/308/308 316/316/316 317/317/317
f 308/308/308 317/317/317 309/309/309
f 309/309/309 317/317/317 318/318/318
f 309/309/309 318/318/318 310/310/310
f 310/310/310 318/318/318 319/319/319
f 310/310/310 319/319/319 311/311/311
f 311/311/311 319/319/319 312/312/312
f 311/311/311 312/312/312 304/304/304
f 312/312/312 320/320/320 321/321/321
f 312/312/312 321/321/321 313/313/313
f 313/313/313 321/321/321 322/322/322
f 313/313/313 322/322/322 314/314/314
f 314/314/314 322/322/322 323/323/323
f 314/314/314 323/323/323 315/315/315
f 315/315/315 323/323/323 324/324/324
f 315/315/315 324/324/324 316/316/316
f 316/316/316 324/324/324 325/325/325
f 316/316/316 325/325/325 317/317/317
f 317/317/317 325/325/325 326/326/326
f 317/317/317 326/326/326 318/318/318
f 318/318/318 326/326/326 327/327/327
f 318/318/318 327/327/327 319/319/319
f 319/319/319 327/327/327 320/320/320
f 319/319/319 320/320/320 312/312/312
f 320/320/320 328/328/328 329/329/329
f 320/320/320 329/329/329 321/321/321
f 321/321/321 329/329/329 330/330/330
f 321/321/321 330/330/330 322/322/322
f 322/322/322 330/330/330 331/331/331
f 322/322/322 331/331/331 323/323/323
f 323/323/323 331/331/331 332/332/332
f 323/323/323 332/332/332 324/324/324
f 324/324/324 332/332/332 333/333/333
f 324/324/324 333/333/333 325/325/325
f 325/325/325 333/333/333 334/334/334
f 325/325/325 334/334/334 326/326/326
f 326/326/326 334/334/334 335/335/335
f 326/326/326 335/335/335 327/327/327
f 327/327/327 335/335/335 328/328/328
f 327/327/327 328/328/328 320/320/320
f 328/328/328 336/336/336 337/337/337
f 328/328/328 337/337/337 329/329/329
f 329/329/329 337/337/337 338/338/338
f 329/329/329 338/338/338 330/330/330
f 330/330/330 338/338/338 339/339/339
f 330/330/330 339/339/339 331/331/331
f 331/331/331 339/339/339 340/340/340
f 331/331/331 340/340/340 332/332/332
f 332/332/332 340/340/340 341/341/341
f 332/332/332 341/341/341 333/333/333
f 333/333/333 341/341/341 342/342/342
f 333/333/333 342/342/342 334/334/334
f 334/334/334 342/342/342 343/343/343
f 334/334/334 343/343/343 335/335/335
f 335/335/335 343/343/343 336/336/336
f 335/335/335 336/336/336 328/328/328
f 336/336/336 344/344/344 345/345/345
f 336/336/336 345/345/345 337/337/337
f 337/337/337 345/345/345 346/346/346
f 337/337/337 346/346/346 338/338/338
f 338/338/338 346/346/346 347/347/347
f 338/338/338 347/347/347 339/339/339
f 339/339/339 347/347/347 348/348/348
f 339/339/339 348/348/348 340/340/340
f 340/340/340 348/348/348 349/349/349
f 340/340/340 349/349/349 341/341/341
f 341/341/341 349/349/349 350/350/350
f 341/341/341 350/350/350 342/342/342
f 342/342/342 350/350/350 351/351/351
f 342/342/342 351/351/351 343/343/343
f 343/343/343 351/351/351 344/344/344
f 343/343/343 344/344/344 336/336/336
f 344/344/344 352/352/352 353/353/353
f 344/344/344 353/353/353 345/345/345
f 345/345/345 353/353/353 354/354/354
f 345/345/345 354/354/354 346/346/346
f 346/346/346 354/354/354 355/355/355
f 346/346/346 355/355/355 347/347/347
f 347/347/347 355/355/355 356/356/356
f 347/347/347 356/356/356 348/348/348
f 348/348/348 356/356/356 357/357/357
f 348/348/348 357/357/357 349/349/349
f 349/349/349 357/357/357 358/358/358
f 349/349/349 358/358/358 350/350/350
f 350/350/350 358/358/358 359/359/359
f 350/350/350 359/359/359 351/351/351
f 351/351/351 359/359/359 352/352/352
f 351/351/351 352/352/352 344/344/344
f 352/352/352 248/248/248 249/249/249
f 352/352/352 249/249/249 353/353/353
f 353/353/353 249/249/249 250/250/250
f 353/353/353 250/250/250 354/354/354
f 354/354/354 250/250/250 251/251/251
f 354/354/354 251/251/251 355/355/355
f 355/355/355 251/251/251 252/252/252
f 355/355/355 252/252/252 356/356/356
f 356/356/356 252/252/252 253/253/253
f 356/356/356 253/253/253 357/357/357
f 357/357/357 253/253/253 254/254/254
f 357/357/357 254/254/254 358/358/358
f 358/358/358 254/254/254 255/255/255
f 358/358/358 255/255/255 359/359/359
f 359/359/359 255/255/255 248/248/248
f 359/359/359 248/248/248 352/352/352
